<svg width="46" height="52" viewBox="0 0 46 52" fill="none" xmlns="http://www.w3.org/2000/svg">
<g filter="url(#filter0_d_697_58)">
<path d="M42.9974 20.6761C42.9132 15.4844 40.8132 10.5291 37.1415 6.85775C33.3908 3.1071 28.3038 1 22.9996 1C17.6954 1 12.6084 3.1071 8.85775 6.85775C5.1071 10.6084 3 15.6954 3 20.9996C3 26.3038 5.1071 31.3908 8.85775 35.1415L18.2886 44.5701L18.6086 44.8701C19.8811 45.9843 21.5295 46.5733 23.2199 46.5176C24.9104 46.4618 26.5165 45.7657 27.7128 44.5701L37.1415 35.1437L37.5926 34.677C41.1433 30.8886 43.0816 25.8677 42.9974 20.6761Z" fill="#F7F5F0"/>
</g>
<defs>
<filter id="filter0_d_697_58" x="0" y="-0.333008" width="46" height="52" filterUnits="userSpaceOnUse" color-interpolation-filters="sRGB">
<feFlood flood-opacity="0" result="BackgroundImageFix"/>
<feColorMatrix in="SourceAlpha" type="matrix" values="0 0 0 0 0 0 0 0 0 0 0 0 0 0 0 0 0 0 127 0" result="hardAlpha"/>
<feOffset dy="2"/>
<feGaussianBlur stdDeviation="1.5"/>
<feComposite in2="hardAlpha" operator="out"/>
<feColorMatrix type="matrix" values="0 0 0 0 0 0 0 0 0 0 0 0 0 0 0 0 0 0 0.32 0"/>
<feBlend mode="normal" in2="BackgroundImageFix" result="effect1_dropShadow_697_58"/>
<feBlend mode="normal" in="SourceGraphic" in2="effect1_dropShadow_697_58" result="shape"/>
</filter>
</defs>
</svg>
